P3 50 50 255
0 0 0 0 0 0 0 0 0 0 0 0 0 0 0 0 0 0 0 0 0 0 0 0 0 0 0 0 0 0 0 0 0 0 0 0 0 0 0 0 0 0 0 0 0 0 0 0 0 0 0 0 0 0 0 0 0 0 0 0 0 0 0 0 0 0 0 0 0 0 0 0 0 0 0 70 205 0 70 205 0 70 205 0 70 205 0 70 205 0 70 205 0 70 205 0 70 205 0 70 205 0 70 205 0 0 0 0 0 0 0 0 0 0 0 0 0 0 0 0 0 0 0 0 0 0 0 0 0 0 0 0 0 0 0 0 0 0 0 0 0 0 0 0 0 0 0 0 0 0 
0 0 0 0 0 0 0 0 0 0 0 0 0 0 0 0 0 0 0 0 0 0 0 0 0 0 0 0 0 0 0 0 0 0 0 0 0 0 0 0 0 0 0 0 0 0 0 0 0 0 0 0 0 0 0 0 0 0 0 0 70 205 0 70 205 0 70 205 0 70 205 0 70 205 0 70 205 0 0 0 0 0 0 0 0 0 0 0 0 0 0 0 0 0 0 0 0 0 0 0 0 0 70 205 0 70 205 0 70 205 0 70 205 0 0 0 0 0 0 0 0 0 0 0 0 0 0 0 0 0 0 0 0 0 0 0 0 0 0 0 0 0 0 0 0 0 0 0 0 0 
0 0 0 0 0 0 0 0 0 0 0 0 0 0 0 0 0 0 0 0 0 0 0 0 0 0 0 0 0 0 0 0 0 0 0 0 0 0 0 0 0 0 0 0 0 70 205 0 70 205 0 70 205 0 70 205 0 0 0 0 0 0 0 0 0 0 0 0 0 0 0 0 0 0 0 0 0 0 0 0 0 0 0 0 0 0 0 0 0 0 0 0 0 0 0 0 0 0 0 0 0 0 0 0 0 0 0 0 0 0 0 70 205 0 70 205 0 70 205 0 70 205 0 0 0 0 0 0 0 0 0 0 0 0 0 0 0 0 0 0 0 0 0 0 0 0 0 0 0 0 
0 0 0 0 0 0 0 0 0 0 0 0 0 0 0 0 0 0 0 0 0 0 0 0 0 0 0 0 0 0 0 0 0 70 205 0 70 205 0 70 205 0 70 205 0 0 0 0 0 0 0 0 0 0 0 0 0 0 0 0 0 0 0 0 0 0 0 0 0 0 0 0 0 0 0 0 0 0 0 0 0 0 0 0 0 0 0 0 0 0 0 0 0 0 0 0 0 0 0 0 0 0 0 0 0 0 0 0 0 0 0 0 0 0 70 205 0 70 205 0 70 205 0 70 205 0 70 205 0 70 205 0 0 0 0 0 0 0 0 0 0 0 0 0 0 0 0 0 0 0 
0 0 0 0 0 0 0 0 0 0 0 0 0 0 0 0 0 0 0 0 0 0 0 0 70 205 0 70 205 0 70 205 0 0 0 0 0 0 0 0 0 0 0 0 0 0 0 0 0 0 0 0 0 0 0 0 0 0 0 0 0 0 0 0 0 0 0 0 0 0 0 0 0 0 0 0 0 0 70 205 0 70 205 0 70 205 0 70 205 0 70 205 0 70 205 0 70 205 0 70 205 0 70 205 0 70 205 0 70 205 0 70 205 0 70 205 0 0 0 0 0 0 0 70 205 0 70 205 0 70 205 0 70 205 0 0 0 0 0 0 0 0 0 0 0 0 0 0 0 0 
0 0 0 0 0 0 0 0 0 0 0 0 0 0 0 0 0 0 0 0 0 70 205 0 70 205 0 0 0 0 0 0 0 0 0 0 0 0 0 0 0 0 0 0 0 0 0 0 0 0 0 0 0 0 0 0 0 0 0 0 0 0 0 0 0 0 0 0 0 0 0 0 0 0 0 70 205 0 70 205 0 0 0 0 0 0 0 0 0 0 0 0 0 0 0 0 0 0 0 0 0 0 0 0 0 0 0 0 0 0 0 0 0 0 0 0 0 0 0 0 0 0 0 0 0 0 70 205 0 70 205 0 70 205 0 70 205 0 0 0 0 0 0 0 0 0 0 0 0 0 
0 0 0 0 0 0 0 0 0 0 0 0 0 0 0 70 205 0 70 205 0 0 0 0 0 0 0 0 0 0 0 0 0 160 21 0 160 21 0 0 0 0 0 0 0 160 21 0 0 0 0 0 0 0 0 0 0 0 0 0 0 0 0 0 0 0 0 0 0 0 0 0 70 205 0 0 0 0 0 0 0 70 205 0 70 205 0 0 0 0 0 0 0 0 0 0 0 0 0 0 0 0 0 0 0 0 0 0 0 0 0 0 0 0 160 21 0 0 0 0 0 0 0 0 0 0 0 0 0 70 205 0 0 0 0 70 205 0 70 205 0 0 0 0 0 0 0 0 0 0 
0 0 0 0 0 0 0 0 0 0 0 0 70 205 0 0 0 0 0 0 0 0 0 0 0 0 0 0 0 0 0 0 0 160 21 0 0 0 0 0 0 0 0 0 0 0 0 0 0 0 0 0 0 0 0 0 0 0 0 0 0 0 0 70 205 0 70 205 0 0 0 0 0 0 0 0 0 0 0 0 0 0 0 0 0 0 0 0 0 0 70 205 0 0 0 0 70 205 0 0 0 0 0 0 0 0 0 0 0 0 0 0 0 0 0 0 0 0 0 0 160 21 0 160 21 0 0 0 0 70 205 0 0 0 0 0 0 0 70 205 0 0 0 0 0 0 0 0 0 0 
0 0 0 0 0 0 0 0 0 70 205 0 0 0 0 0 0 0 0 0 0 0 0 0 0 0 0 0 0 0 0 0 0 0 0 0 0 0 0 160 21 0 0 0 0 160 21 0 0 0 0 160 21 0 160 21 0 0 0 0 70 205 0 0 0 0 0 0 0 0 0 0 0 0 0 0 0 0 0 0 0 0 0 0 0 0 0 0 0 0 0 0 0 160 21 0 0 0 0 70 205 0 0 0 0 0 0 0 0 0 0 0 0 0 0 0 0 0 0 0 0 0 0 0 0 0 160 21 0 160 21 0 70 205 0 0 0 0 70 205 0 0 0 0 0 0 0 0 0 0 
0 0 0 0 0 0 70 205 0 70 205 0 0 0 0 0 0 0 0 0 0 0 0 0 0 0 0 160 21 0 160 21 0 160 21 0 160 21 0 0 0 0 0 0 0 0 0 0 0 0 0 0 0 0 0 0 0 0 0 0 0 0 0 160 21 0 0 0 0 160 21 0 0 0 0 0 0 0 0 0 0 0 0 0 0 0 0 0 0 0 0 0 0 0 0 0 160 21 0 70 205 0 0 0 0 0 0 0 0 0 0 0 0 0 0 0 0 0 0 0 0 0 0 0 0 0 0 0 0 160 21 0 70 205 0 0 0 0 70 205 0 0 0 0 0 0 0 0 0 0 
0 0 0 70 205 0 70 205 0 0 0 0 0 0 0 0 0 0 0 0 0 160 21 0 160 21 0 0 0 0 160 21 0 160 21 0 160 21 0 160 21 0 160 21 0 0 0 0 0 0 0 0 0 0 160 21 0 70 205 0 70 205 0 0 0 0 0 0 0 0 0 0 160 21 0 160 21 0 0 0 0 0 0 0 0 0 0 0 0 0 0 0 0 0 0 0 0 0 0 70 205 0 0 0 0 0 0 0 0 0 0 0 0 0 0 0 0 0 0 0 0 0 0 0 0 0 0 0 0 0 0 0 70 205 0 70 205 0 70 205 0 0 0 0 0 0 0 0 0 0 
0 0 0 70 205 0 0 0 0 0 0 0 0 0 0 160 21 0 0 0 0 0 0 0 0 0 0 160 21 0 160 21 0 0 0 0 0 0 0 0 0 0 0 0 0 0 0 0 0 0 0 0 0 0 0 0 0 0 0 0 0 0 0 0 0 0 160 21 0 0 0 0 0 0 0 0 0 0 160 21 0 160 21 0 0 0 0 0 0 0 0 0 0 0 0 0 0 0 0 70 205 0 160 21 0 0 0 0 0 0 0 0 0 0 0 0 0 0 0 0 0 0 0 0 0 0 0 0 0 0 0 0 70 205 0 70 205 0 0 0 0 0 0 0 0 0 0 0 0 0 
0 0 0 70 205 0 0 0 0 0 0 0 160 21 0 0 0 0 0 0 0 0 0 0 0 0 0 0 0 0 0 0 0 0 0 0 0 0 0 0 0 0 0 0 0 0 0 0 0 0 0 0 0 0 0 0 0 70 205 0 0 0 0 0 0 0 0 0 0 160 21 0 0 0 0 160 21 0 0 0 0 0 0 0 160 21 0 0 0 0 0 0 0 0 0 0 0 0 0 70 205 0 160 21 0 0 0 0 0 0 0 0 0 0 0 0 0 0 0 0 0 0 0 0 0 0 0 0 0 0 0 0 0 0 0 70 205 0 0 0 0 0 0 0 0 0 0 0 0 0 
70 205 0 70 205 0 0 0 0 160 21 0 0 0 0 0 0 0 0 0 0 0 0 0 0 0 0 0 0 0 0 0 0 160 21 0 0 0 0 0 0 0 0 0 0 0 0 0 0 0 0 0 0 0 0 0 0 70 205 0 70 205 0 0 0 0 0 0 0 0 0 0 0 0 0 0 0 0 0 0 0 160 21 0 160 21 0 0 0 0 0 0 0 0 0 0 70 205 0 0 0 0 160 21 0 160 21 0 160 21 0 0 0 0 0 0 0 0 0 0 0 0 0 0 0 0 0 0 0 160 21 0 0 0 0 70 205 0 0 0 0 0 0 0 0 0 0 0 0 0 
70 205 0 0 0 0 0 0 0 160 21 0 0 0 0 0 0 0 0 0 0 0 0 0 0 0 0 0 0 0 160 21 0 0 0 0 0 0 0 0 0 0 0 0 0 0 0 0 0 0 0 0 0 0 0 0 0 0 0 0 0 0 0 0 0 0 0 0 0 160 21 0 0 0 0 0 0 0 0 0 0 0 0 0 0 0 0 160 21 0 0 0 0 0 0 0 70 205 0 0 0 0 0 0 0 0 0 0 0 0 0 160 21 0 160 21 0 0 0 0 0 0 0 0 0 0 160 21 0 0 0 0 0 0 0 70 205 0 0 0 0 0 0 0 0 0 0 0 0 0 
70 205 0 0 0 0 0 0 0 160 21 0 0 0 0 0 0 0 0 0 0 0 0 0 0 0 0 0 0 0 0 0 0 160 21 0 0 0 0 0 0 0 0 0 0 0 0 0 0 0 0 0 0 0 0 0 0 0 0 0 70 205 0 0 0 0 0 0 0 0 0 0 0 0 0 0 0 0 0 0 0 0 0 0 0 0 0 160 21 0 160 21 0 0 0 0 0 0 0 0 0 0 0 0 0 0 0 0 0 0 0 0 0 0 160 21 0 0 0 0 0 0 0 160 21 0 0 0 0 0 0 0 0 0 0 70 205 0 0 0 0 0 0 0 0 0 0 0 0 0 
70 205 0 0 0 0 0 0 0 160 21 0 0 0 0 0 0 0 0 0 0 0 0 0 0 0 0 0 0 0 0 0 0 0 0 0 0 0 0 0 0 0 0 0 0 0 0 0 0 0 0 0 0 0 0 0 0 0 0 0 0 0 0 0 0 0 0 0 0 0 0 0 0 0 0 0 0 0 0 0 0 0 0 0 0 0 0 160 21 0 160 21 0 0 0 0 0 0 0 0 0 0 0 0 0 0 0 0 160 21 0 0 0 0 0 0 0 160 21 0 0 0 0 0 0 0 0 0 0 0 0 0 0 0 0 70 205 0 0 0 0 0 0 0 0 0 0 0 0 0 
70 205 0 0 0 0 0 0 0 160 21 0 0 0 0 0 0 0 0 0 0 0 0 0 0 0 0 0 0 0 0 0 0 0 0 0 160 21 0 0 0 0 0 0 0 160 21 0 0 0 0 160 21 0 0 0 0 0 0 0 0 0 0 70 205 0 0 0 0 0 0 0 0 0 0 0 0 0 0 0 0 160 21 0 160 21 0 0 0 0 160 21 0 70 205 0 0 0 0 0 0 0 0 0 0 0 0 0 160 21 0 0 0 0 0 0 0 160 21 0 0 0 0 0 0 0 0 0 0 70 205 0 70 205 0 70 205 0 0 0 0 0 0 0 0 0 0 0 0 0 
70 205 0 0 0 0 0 0 0 0 0 0 160 21 0 0 0 0 0 0 0 0 0 0 0 0 0 0 0 0 0 0 0 0 0 0 160 21 0 160 21 0 70 205 0 70 205 0 0 0 0 70 205 0 0 0 0 70 205 0 70 205 0 0 0 0 70 205 0 0 0 0 0 0 0 160 21 0 0 0 0 0 0 0 0 0 0 160 21 0 0 0 0 0 0 0 0 0 0 0 0 0 0 0 0 0 0 0 0 0 0 0 0 0 0 0 0 160 21 0 0 0 0 0 0 0 70 205 0 70 205 0 0 0 0 70 205 0 0 0 0 0 0 0 0 0 0 0 0 0 
70 205 0 0 0 0 0 0 0 0 0 0 0 0 0 0 0 0 160 21 0 0 0 0 70 205 0 70 205 0 0 0 0 0 0 0 70 205 0 160 21 0 0 0 0 0 0 0 0 0 0 0 0 0 0 0 0 0 0 0 0 0 0 70 205 0 70 205 0 0 0 0 0 0 0 0 0 0 0 0 0 0 0 0 0 0 0 160 21 0 0 0 0 0 0 0 160 21 0 160 21 0 0 0 0 0 0 0 160 21 0 0 0 0 0 0 0 160 21 0 0 0 0 70 205 0 70 205 0 0 0 0 0 0 0 70 205 0 0 0 0 0 0 0 0 0 0 0 0 0 
70 205 0 0 0 0 0 0 0 0 0 0 0 0 0 70 205 0 70 205 0 70 205 0 0 0 0 0 0 0 160 21 0 160 21 0 0 0 0 160 21 0 160 21 0 0 0 0 0 0 0 160 21 0 0 0 0 0 0 0 0 0 0 0 0 0 70 205 0 0 0 0 0 0 0 70 205 0 160 21 0 160 21 0 0 0 0 0 0 0 70 205 0 160 21 0 0 0 0 0 0 0 0 0 0 160 21 0 0 0 0 160 21 0 0 0 0 160 21 0 0 0 0 70 205 0 0 0 0 0 0 0 0 0 0 70 205 0 0 0 0 0 0 0 0 0 0 0 0 0 
70 205 0 0 0 0 0 0 0 70 205 0 70 205 0 0 0 0 0 0 0 0 0 0 160 21 0 160 21 0 160 21 0 0 0 0 0 0 0 0 0 0 160 21 0 160 21 0 160 21 0 0 0 0 0 0 0 0 0 0 0 0 0 160 21 0 70 205 0 160 21 0 160 21 0 160 21 0 160 21 0 160 21 0 0 0 0 70 205 0 0 0 0 0 0 0 160 21 0 0 0 0 0 0 0 160 21 0 0 0 0 0 0 0 160 21 0 160 21 0 0 0 0 70 205 0 70 205 0 0 0 0 0 0 0 70 205 0 0 0 0 0 0 0 0 0 0 0 0 0 
70 205 0 0 0 0 0 0 0 70 205 0 0 0 0 0 0 0 0 0 0 160 21 0 160 21 0 160 21 0 0 0 0 0 0 0 160 21 0 0 0 0 0 0 0 160 21 0 160 21 0 160 21 0 160 21 0 160 21 0 160 21 0 160 21 0 70 205 0 0 0 0 160 21 0 160 21 0 0 0 0 70 205 0 0 0 0 0 0 0 0 0 0 0 0 0 0 0 0 0 0 0 160 21 0 160 21 0 0 0 0 0 0 0 0 0 0 160 21 0 0 0 0 0 0 0 70 205 0 70 205 0 0 0 0 70 205 0 0 0 0 0 0 0 0 0 0 0 0 0 
70 205 0 0 0 0 70 205 0 0 0 0 0 0 0 0 0 0 0 0 0 160 21 0 0 0 0 0 0 0 0 0 0 0 0 0 0 0 0 0 0 0 0 0 0 160 21 0 160 21 0 160 21 0 0 0 0 0 0 0 0 0 0 0 0 0 70 205 0 0 0 0 0 0 0 0 0 0 0 0 0 0 0 0 0 0 0 0 0 0 0 0 0 0 0 0 0 0 0 0 0 0 160 21 0 160 21 0 0 0 0 0 0 0 160 21 0 0 0 0 0 0 0 160 21 0 0 0 0 70 205 0 0 0 0 70 205 0 0 0 0 0 0 0 0 0 0 0 0 0 
70 205 0 0 0 0 70 205 0 70 205 0 0 0 0 0 0 0 0 0 0 160 21 0 160 21 0 0 0 0 0 0 0 0 0 0 0 0 0 0 0 0 160 21 0 0 0 0 0 0 0 0 0 0 0 0 0 0 0 0 0 0 0 0 0 0 70 205 0 0 0 0 0 0 0 0 0 0 0 0 0 0 0 0 70 205 0 70 205 0 0 0 0 0 0 0 0 0 0 0 0 0 160 21 0 0 0 0 0 0 0 160 21 0 0 0 0 0 0 0 0 0 0 160 21 0 0 0 0 70 205 0 0 0 0 70 205 0 0 0 0 0 0 0 0 0 0 0 0 0 
70 205 0 0 0 0 0 0 0 70 205 0 0 0 0 0 0 0 0 0 0 0 0 0 160 21 0 0 0 0 0 0 0 0 0 0 0 0 0 160 21 0 0 0 0 0 0 0 0 0 0 0 0 0 0 0 0 0 0 0 0 0 0 70 205 0 0 0 0 0 0 0 0 0 0 0 0 0 0 0 0 0 0 0 0 0 0 0 0 0 0 0 0 0 0 0 0 0 0 160 21 0 160 21 0 0 0 0 160 21 0 0 0 0 0 0 0 0 0 0 0 0 0 0 0 0 0 0 0 70 205 0 70 205 0 70 205 0 0 0 0 0 0 0 0 0 0 0 0 0 
70 205 0 70 205 0 0 0 0 70 205 0 70 205 0 0 0 0 0 0 0 0 0 0 160 21 0 0 0 0 0 0 0 0 0 0 0 0 0 160 21 0 0 0 0 0 0 0 0 0 0 0 0 0 0 0 0 0 0 0 0 0 0 70 205 0 0 0 0 0 0 0 0 0 0 0 0 0 0 0 0 70 205 0 0 0 0 0 0 0 0 0 0 0 0 0 0 0 0 160 21 0 0 0 0 0 0 0 0 0 0 0 0 0 0 0 0 0 0 0 0 0 0 0 0 0 160 21 0 0 0 0 70 205 0 70 205 0 0 0 0 0 0 0 0 0 0 0 0 0 
0 0 0 70 205 0 0 0 0 0 0 0 70 205 0 70 205 0 0 0 0 0 0 0 0 0 0 160 21 0 0 0 0 0 0 0 0 0 0 160 21 0 160 21 0 0 0 0 0 0 0 0 0 0 0 0 0 0 0 0 70 205 0 0 0 0 0 0 0 0 0 0 0 0 0 0 0 0 0 0 0 70 205 0 0 0 0 0 0 0 0 0 0 160 21 0 70 205 0 0 0 0 0 0 0 0 0 0 0 0 0 0 0 0 0 0 0 0 0 0 0 0 0 0 0 0 0 0 0 0 0 0 70 205 0 70 205 0 0 0 0 0 0 0 0 0 0 0 0 0 
0 0 0 70 205 0 0 0 0 0 0 0 0 0 0 70 205 0 70 205 0 0 0 0 0 0 0 0 0 0 160 21 0 160 21 0 0 0 0 0 0 0 160 21 0 160 21 0 160 21 0 0 0 0 0 0 0 0 0 0 70 205 0 0 0 0 0 0 0 0 0 0 0 0 0 0 0 0 0 0 0 70 205 0 0 0 0 0 0 0 160 21 0 0 0 0 0 0 0 0 0 0 160 21 0 0 0 0 0 0 0 0 0 0 0 0 0 160 21 0 0 0 0 0 0 0 160 21 0 0 0 0 70 205 0 70 205 0 0 0 0 0 0 0 0 0 0 0 0 0 
0 0 0 0 0 0 70 205 0 0 0 0 0 0 0 0 0 0 70 205 0 70 205 0 0 0 0 0 0 0 0 0 0 160 21 0 160 21 0 160 21 0 160 21 0 0 0 0 0 0 0 0 0 0 160 21 0 70 205 0 0 0 0 160 21 0 0 0 0 0 0 0 0 0 0 0 0 0 0 0 0 0 0 0 160 21 0 160 21 0 0 0 0 0 0 0 0 0 0 0 0 0 0 0 0 0 0 0 0 0 0 160 21 0 160 21 0 0 0 0 0 0 0 0 0 0 160 21 0 0 0 0 70 205 0 70 205 0 0 0 0 0 0 0 0 0 0 0 0 0 
0 0 0 0 0 0 70 205 0 0 0 0 0 0 0 0 0 0 0 0 0 70 205 0 0 0 0 0 0 0 0 0 0 0 0 0 0 0 0 160 21 0 0 0 0 0 0 0 160 21 0 0 0 0 160 21 0 70 205 0 0 0 0 0 0 0 0 0 0 160 21 0 0 0 0 160 21 0 160 21 0 0 0 0 0 0 0 160 21 0 160 21 0 0 0 0 0 0 0 160 21 0 70 205 0 0 0 0 160 21 0 0 0 0 0 0 0 0 0 0 0 0 0 0 0 0 160 21 0 0 0 0 70 205 0 70 205 0 0 0 0 0 0 0 0 0 0 0 0 0 
0 0 0 0 0 0 70 205 0 70 205 0 0 0 0 0 0 0 0 0 0 0 0 0 70 205 0 70 205 0 0 0 0 0 0 0 0 0 0 0 0 0 0 0 0 160 21 0 0 0 0 0 0 0 0 0 0 0 0 0 160 21 0 0 0 0 0 0 0 160 21 0 160 21 0 160 21 0 0 0 0 0 0 0 0 0 0 0 0 0 0 0 0 0 0 0 0 0 0 0 0 0 0 0 0 70 205 0 0 0 0 0 0 0 0 0 0 0 0 0 0 0 0 0 0 0 160 21 0 0 0 0 70 205 0 70 205 0 0 0 0 0 0 0 0 0 0 0 0 0 
0 0 0 0 0 0 0 0 0 70 205 0 0 0 0 0 0 0 0 0 0 0 0 0 0 0 0 70 205 0 0 0 0 0 0 0 0 0 0 0 0 0 0 0 0 0 0 0 160 21 0 0 0 0 70 205 0 0 0 0 160 21 0 160 21 0 0 0 0 0 0 0 0 0 0 0 0 0 160 21 0 0 0 0 0 0 0 0 0 0 160 21 0 0 0 0 0 0 0 0 0 0 0 0 0 0 0 0 70 205 0 0 0 0 0 0 0 0 0 0 0 0 0 0 0 0 160 21 0 0 0 0 70 205 0 70 205 0 0 0 0 0 0 0 0 0 0 0 0 0 
0 0 0 0 0 0 0 0 0 70 205 0 70 205 0 0 0 0 0 0 0 0 0 0 0 0 0 0 0 0 70 205 0 0 0 0 0 0 0 0 0 0 0 0 0 0 0 0 0 0 0 0 0 0 70 205 0 0 0 0 0 0 0 0 0 0 160 21 0 0 0 0 160 21 0 0 0 0 0 0 0 0 0 0 0 0 0 0 0 0 0 0 0 0 0 0 0 0 0 0 0 0 0 0 0 0 0 0 0 0 0 0 0 0 0 0 0 0 0 0 0 0 0 0 0 0 0 0 0 0 0 0 70 205 0 70 205 0 0 0 0 0 0 0 0 0 0 0 0 0 
0 0 0 0 0 0 0 0 0 0 0 0 70 205 0 0 0 0 0 0 0 0 0 0 0 0 0 0 0 0 70 205 0 0 0 0 0 0 0 0 0 0 0 0 0 0 0 0 160 21 0 160 21 0 70 205 0 0 0 0 0 0 0 0 0 0 0 0 0 0 0 0 0 0 0 0 0 0 0 0 0 0 0 0 0 0 0 0 0 0 0 0 0 0 0 0 0 0 0 0 0 0 0 0 0 0 0 0 70 205 0 0 0 0 0 0 0 0 0 0 160 21 0 0 0 0 0 0 0 0 0 0 70 205 0 70 205 0 0 0 0 0 0 0 0 0 0 0 0 0 
0 0 0 0 0 0 0 0 0 0 0 0 70 205 0 70 205 0 0 0 0 0 0 0 0 0 0 0 0 0 70 205 0 0 0 0 0 0 0 0 0 0 0 0 0 160 21 0 160 21 0 0 0 0 70 205 0 0 0 0 0 0 0 0 0 0 0 0 0 0 0 0 0 0 0 0 0 0 0 0 0 0 0 0 0 0 0 0 0 0 0 0 0 0 0 0 0 0 0 0 0 0 0 0 0 0 0 0 70 205 0 0 0 0 0 0 0 160 21 0 0 0 0 0 0 0 0 0 0 70 205 0 70 205 0 70 205 0 0 0 0 0 0 0 0 0 0 0 0 0 
0 0 0 0 0 0 0 0 0 0 0 0 0 0 0 70 205 0 70 205 0 0 0 0 0 0 0 0 0 0 70 205 0 0 0 0 0 0 0 0 0 0 0 0 0 160 21 0 0 0 0 0 0 0 70 205 0 70 205 0 0 0 0 0 0 0 0 0 0 0 0 0 0 0 0 0 0 0 0 0 0 0 0 0 0 0 0 0 0 0 0 0 0 0 0 0 0 0 0 0 0 0 0 0 0 0 0 0 70 205 0 0 0 0 160 21 0 0 0 0 0 0 0 0 0 0 0 0 0 70 205 0 0 0 0 70 205 0 0 0 0 0 0 0 0 0 0 0 0 0 
0 0 0 0 0 0 0 0 0 0 0 0 0 0 0 0 0 0 70 205 0 0 0 0 0 0 0 0 0 0 70 205 0 0 0 0 0 0 0 0 0 0 0 0 0 160 21 0 0 0 0 160 21 0 0 0 0 0 0 0 70 205 0 70 205 0 0 0 0 0 0 0 0 0 0 0 0 0 0 0 0 0 0 0 0 0 0 0 0 0 0 0 0 0 0 0 0 0 0 0 0 0 70 205 0 0 0 0 160 21 0 0 0 0 0 0 0 0 0 0 0 0 0 0 0 0 70 205 0 70 205 0 0 0 0 70 205 0 0 0 0 0 0 0 0 0 0 0 0 0 
0 0 0 0 0 0 0 0 0 0 0 0 0 0 0 0 0 0 70 205 0 70 205 0 0 0 0 0 0 0 70 205 0 0 0 0 0 0 0 0 0 0 0 0 0 0 0 0 0 0 0 0 0 0 160 21 0 0 0 0 160 21 0 0 0 0 70 205 0 0 0 0 0 0 0 70 205 0 0 0 0 70 205 0 70 205 0 0 0 0 160 21 0 70 205 0 0 0 0 70 205 0 0 0 0 0 0 0 0 0 0 0 0 0 0 0 0 0 0 0 70 205 0 70 205 0 70 205 0 0 0 0 0 0 0 70 205 0 0 0 0 0 0 0 0 0 0 0 0 0 
0 0 0 0 0 0 0 0 0 0 0 0 0 0 0 0 0 0 0 0 0 70 205 0 70 205 0 70 205 0 70 205 0 0 0 0 0 0 0 0 0 0 0 0 0 0 0 0 0 0 0 0 0 0 0 0 0 0 0 0 0 0 0 160 21 0 0 0 0 0 0 0 0 0 0 0 0 0 160 21 0 0 0 0 160 21 0 0 0 0 0 0 0 0 0 0 0 0 0 0 0 0 0 0 0 0 0 0 0 0 0 0 0 0 70 205 0 70 205 0 70 205 0 0 0 0 0 0 0 0 0 0 0 0 0 70 205 0 0 0 0 0 0 0 0 0 0 0 0 0 
0 0 0 0 0 0 0 0 0 0 0 0 0 0 0 0 0 0 0 0 0 0 0 0 0 0 0 70 205 0 70 205 0 0 0 0 0 0 0 0 0 0 0 0 0 0 0 0 0 0 0 0 0 0 0 0 0 0 0 0 0 0 0 0 0 0 0 0 0 0 0 0 0 0 0 0 0 0 0 0 0 0 0 0 0 0 0 0 0 0 0 0 0 0 0 0 0 0 0 0 0 0 0 0 0 70 205 0 70 205 0 70 205 0 70 205 0 0 0 0 0 0 0 0 0 0 0 0 0 0 0 0 0 0 0 70 205 0 0 0 0 0 0 0 0 0 0 0 0 0 
0 0 0 0 0 0 0 0 0 0 0 0 0 0 0 0 0 0 0 0 0 0 0 0 0 0 0 0 0 0 70 205 0 70 205 0 70 205 0 0 0 0 0 0 0 0 0 0 0 0 0 0 0 0 0 0 0 0 0 0 0 0 0 0 0 0 0 0 0 0 0 0 0 0 0 0 0 0 0 0 0 0 0 0 0 0 0 0 0 0 0 0 0 0 0 0 70 205 0 70 205 0 70 205 0 70 205 0 0 0 0 0 0 0 0 0 0 0 0 0 0 0 0 0 0 0 0 0 0 0 0 0 0 0 0 70 205 0 0 0 0 0 0 0 0 0 0 0 0 0 
0 0 0 0 0 0 0 0 0 0 0 0 0 0 0 0 0 0 0 0 0 0 0 0 0 0 0 0 0 0 70 205 0 0 0 0 70 205 0 70 205 0 70 205 0 0 0 0 0 0 0 0 0 0 0 0 0 0 0 0 0 0 0 0 0 0 0 0 0 0 0 0 0 0 0 0 0 0 0 0 0 70 205 0 70 205 0 70 205 0 70 205 0 70 205 0 70 205 0 0 0 0 0 0 0 0 0 0 0 0 0 0 0 0 0 0 0 0 0 0 0 0 0 0 0 0 0 0 0 0 0 0 70 205 0 70 205 0 0 0 0 0 0 0 0 0 0 0 0 0 
0 0 0 0 0 0 0 0 0 0 0 0 0 0 0 0 0 0 0 0 0 0 0 0 0 0 0 0 0 0 70 205 0 0 0 0 0 0 0 0 0 0 70 205 0 70 205 0 70 205 0 70 205 0 70 205 0 70 205 0 70 205 0 70 205 0 70 205 0 70 205 0 70 205 0 70 205 0 70 205 0 70 205 0 0 0 0 0 0 0 0 0 0 0 0 0 0 0 0 0 0 0 0 0 0 0 0 0 0 0 0 0 0 0 0 0 0 0 0 0 0 0 0 70 205 0 70 205 0 70 205 0 0 0 0 0 0 0 0 0 0 0 0 0 0 0 0 0 0 0 
0 0 0 0 0 0 0 0 0 0 0 0 0 0 0 0 0 0 0 0 0 0 0 0 0 0 0 0 0 0 70 205 0 0 0 0 0 0 0 0 0 0 0 0 0 0 0 0 0 0 0 0 0 0 0 0 0 0 0 0 0 0 0 0 0 0 0 0 0 0 0 0 0 0 0 0 0 0 0 0 0 0 0 0 0 0 0 0 0 0 0 0 0 0 0 0 0 0 0 0 0 0 0 0 0 0 0 0 0 0 0 0 0 0 0 0 0 70 205 0 70 205 0 70 205 0 0 0 0 0 0 0 0 0 0 0 0 0 0 0 0 0 0 0 0 0 0 0 0 0 
0 0 0 0 0 0 0 0 0 0 0 0 0 0 0 0 0 0 0 0 0 0 0 0 0 0 0 0 0 0 70 205 0 0 0 0 0 0 0 0 0 0 0 0 0 0 0 0 0 0 0 0 0 0 0 0 0 0 0 0 0 0 0 0 0 0 0 0 0 0 0 0 0 0 0 0 0 0 0 0 0 0 0 0 0 0 0 0 0 0 0 0 0 0 0 0 0 0 0 0 0 0 0 0 0 70 205 0 70 205 0 70 205 0 70 205 0 0 0 0 0 0 0 0 0 0 0 0 0 0 0 0 0 0 0 0 0 0 0 0 0 0 0 0 0 0 0 0 0 0 
0 0 0 0 0 0 0 0 0 0 0 0 0 0 0 0 0 0 0 0 0 0 0 0 0 0 0 0 0 0 0 0 0 70 205 0 0 0 0 0 0 0 0 0 0 0 0 0 0 0 0 0 0 0 0 0 0 0 0 0 70 205 0 70 205 0 70 205 0 70 205 0 70 205 0 70 205 0 70 205 0 70 205 0 70 205 0 70 205 0 70 205 0 70 205 0 70 205 0 70 205 0 70 205 0 0 0 0 0 0 0 0 0 0 0 0 0 0 0 0 0 0 0 0 0 0 0 0 0 0 0 0 0 0 0 0 0 0 0 0 0 0 0 0 0 0 0 0 0 0 
0 0 0 0 0 0 0 0 0 0 0 0 0 0 0 0 0 0 0 0 0 0 0 0 0 0 0 0 0 0 0 0 0 70 205 0 70 205 0 0 0 0 0 0 0 70 205 0 70 205 0 70 205 0 70 205 0 70 205 0 0 0 0 0 0 0 0 0 0 0 0 0 0 0 0 0 0 0 0 0 0 0 0 0 0 0 0 0 0 0 0 0 0 0 0 0 0 0 0 0 0 0 0 0 0 0 0 0 0 0 0 0 0 0 0 0 0 0 0 0 0 0 0 0 0 0 0 0 0 0 0 0 0 0 0 0 0 0 0 0 0 0 0 0 0 0 0 0 0 0 
0 0 0 0 0 0 0 0 0 0 0 0 0 0 0 0 0 0 0 0 0 0 0 0 0 0 0 0 0 0 0 0 0 0 0 0 70 205 0 70 205 0 70 205 0 70 205 0 0 0 0 0 0 0 0 0 0 0 0 0 0 0 0 0 0 0 0 0 0 0 0 0 0 0 0 0 0 0 0 0 0 0 0 0 0 0 0 0 0 0 0 0 0 0 0 0 0 0 0 0 0 0 0 0 0 0 0 0 0 0 0 0 0 0 0 0 0 0 0 0 0 0 0 0 0 0 0 0 0 0 0 0 0 0 0 0 0 0 0 0 0 0 0 0 0 0 0 0 0 0 
0 0 0 0 0 0 0 0 0 0 0 0 0 0 0 0 0 0 0 0 0 0 0 0 0 0 0 0 0 0 0 0 0 0 0 0 0 0 0 0 0 0 0 0 0 0 0 0 0 0 0 0 0 0 0 0 0 0 0 0 0 0 0 0 0 0 0 0 0 0 0 0 0 0 0 0 0 0 0 0 0 0 0 0 0 0 0 0 0 0 0 0 0 0 0 0 0 0 0 0 0 0 0 0 0 0 0 0 0 0 0 0 0 0 0 0 0 0 0 0 0 0 0 0 0 0 0 0 0 0 0 0 0 0 0 0 0 0 0 0 0 0 0 0 0 0 0 0 0 0 